<svg width="180" height="130" viewBox="0 0 180 130" fill="none" xmlns="http://www.w3.org/2000/svg">
<g clip-path="url(#clip0_6_619)">
<path d="M67.1075 35.6228C77.4064 27.2733 88.2103 24.145 100.31 26.6124C114.891 29.6085 124.245 38.6629 129.625 52.2776C130.041 53.0874 130.161 54.0177 129.965 54.907C129.768 55.7963 129.267 56.5885 128.549 57.1462C125.014 60.5388 121.676 64.1298 117.68 68.1613C117.542 65.4651 117.242 62.7798 116.779 60.1203C114.583 50.4711 108.83 43.5536 99.2119 40.5795C89.2863 37.4513 80.4807 40.2491 73.1682 47.4529C56.3474 63.9976 58.763 60.4287 42.4253 77.3699C30.2598 89.9271 10.8259 86.5125 1.36147 75.1669C-0.219595 73.3164 -0.680739 71.9505 1.36147 70.3643C1.69695 70.0454 2.00544 69.699 2.28376 69.3289C4.21617 67.1259 5.84116 63.8214 8.1908 63.1825C9.72795 62.786 10.5185 65.6719 14.1418 68.0952C17.1331 69.9574 20.502 71.1242 24.0015 71.5099C30.3477 71.5099 34.9811 67.236 37.9895 64.3281C46.905 55.7803 42.6668 60.2745 46.9928 54.789C45.4996 56.6836 51.0772 50.8016 52.1532 47.3649C52.5675 46.1278 52.7969 44.836 52.834 43.5316C52.834 30.3135 52.834 17.0954 52.7022 3.87728C52.7022 0.682904 53.4488 -0.264361 56.7207 -0.220301C67.0416 -0.11015 67.0416 -0.220291 67.0416 9.97968L67.1075 35.6228Z" fill="#585E71"/>
<path d="M67.6125 96.1837C66.4487 103.85 66.4487 103.872 58.8288 103.85C52.0873 103.85 52.9657 104.643 52.8779 98.0342C52.8779 96.0515 52.8779 94.0467 52.8779 92.064C52.8779 75.0347 52.8779 75.0347 66.3389 63.0503C67.0416 66.3328 66.6024 69.5051 67.4149 72.5233C68.4243 76.5185 70.3917 80.2056 73.1458 83.2638C75.8999 86.322 79.3573 88.6587 83.2171 90.0703C87.0768 91.4819 91.222 91.9258 95.2918 91.3633C99.3616 90.8008 103.233 89.249 106.568 86.8429C110.095 84.1712 113.407 81.2247 116.472 78.0308C131.294 63.3808 125.387 69.4611 139.858 54.4585C151.607 42.2758 167.944 45.1838 179.385 57.1683C179.605 57.3886 180 57.6529 179.978 57.8512C179.363 62.2572 175.125 63.6451 172.929 66.6632C171.502 68.646 170.338 67.236 169.24 66.1786C167.276 64.2271 165.006 62.6122 162.52 61.3981C157.514 59.0629 154 59.5916 150.048 63.6011C136.411 77.2818 143.723 70.4084 130.109 84.1332C126.332 87.9444 122.664 91.8657 118.668 95.4346C112.076 101.637 103.482 105.256 94.453 105.632C85.4238 106.008 76.5604 103.116 69.4791 97.4835C69.0618 97.1751 68.5568 96.7785 67.6125 96.1837Z" fill="#385CA9"/>
<path d="M153.034 130C148.665 130.039 144.342 129.107 140.374 127.271C136.407 125.435 132.893 122.741 130.087 119.381C128.703 117.795 128.396 116.606 130.087 115.174C130.306 114.975 130.482 114.711 130.701 114.491C132.744 112.288 134.413 108.807 136.938 107.882C139.463 106.956 140.978 111.23 143.284 112.817C148.62 116.518 154.154 117.223 158.656 114.116C164.036 110.437 164.497 104.357 159.468 100.237C157.012 98.425 154.42 96.8047 151.716 95.3906C150.026 94.3773 148.225 93.5181 146.512 92.5268C136.081 86.4024 135.994 83.8248 145.809 76.7311C146.622 76.1583 147.259 75.5415 148.159 76.4007C153.912 81.8421 161.686 84.0891 167.813 88.9578C170.591 91.0717 172.839 93.806 174.38 96.9435C175.922 100.081 176.713 103.536 176.692 107.034C176.67 110.531 175.837 113.976 174.258 117.095C172.678 120.213 170.396 122.92 167.593 124.999C163.406 128.2 158.298 129.954 153.034 130Z" fill="#385CA9"/>
<path d="M4.17227 31.0846C4.52362 15.6634 18.6215 6.08033 33.2683 10.5084C38.7757 12.3972 43.7838 15.5157 47.9151 19.6288C49.3644 20.9727 49.584 22.0081 47.9151 23.2859C47.4562 23.6911 47.0235 24.1253 46.6195 24.5856C44.5993 26.6565 42.8205 29.8729 40.427 30.4016C38.7361 30.7982 36.2767 27.4936 34.0588 25.9956C32.6893 25.0854 31.2145 24.3456 29.667 23.7926C24.8798 22.1403 20.5319 23.5943 18.5336 27.3835C16.7549 30.7761 18.0286 34.323 22.3326 37.5174C27.7345 41.5269 34.1686 43.84 39.5047 47.9597C42.3594 50.1627 43.8966 51.9251 40.0756 54.7229C37.748 56.4193 36.123 59.8559 33.7075 60.3846C31.8409 60.7812 29.3156 57.8292 27.0099 56.4633C22.8157 53.9959 18.4238 51.7929 14.3833 49.1052C11.2754 47.2414 8.70145 44.602 6.91205 41.4441C5.12265 38.2861 4.17876 34.7171 4.17227 31.0846Z" fill="#585E71"/>
</g>
<defs>
<clipPath id="clip0_6_619">
<rect width="180" height="130" fill="white"/>
</clipPath>
</defs>
</svg>
